<svg width="100" height="100" viewBox="0 0 100 100" fill="none" xmlns="http://www.w3.org/2000/svg">
<path d="M49.5885 32.9125L58.2653 41.5893L17.9602 81.8944L7.00001 70.9343L49.5885 32.9125Z" fill="#54401A"/>
<path d="M66.942 50.2661L58.2653 41.5893L17.9602 81.8944L28.9203 92.8546L66.942 50.2661Z" fill="#54401A"/>
<path d="M50.8406 38.4073C51.6217 37.6263 52.888 37.6263 53.6691 38.4073L61.4472 46.1855C62.2283 46.9666 62.2283 48.2329 61.4472 49.0139L32.8094 77.6518C29.8805 80.5807 25.1317 80.5807 22.2028 77.6518C19.2739 74.7228 19.2739 69.9741 22.2028 67.0452L50.8406 38.4073Z" fill="#D9D9D9"/>
<path d="M50.8406 44.0642C51.6217 43.2832 52.888 43.2832 53.6691 44.0642L55.7904 46.1855C56.5714 46.9666 56.5714 48.2329 55.7904 49.014L29.981 74.8234C28.6142 76.1902 26.3981 76.1902 25.0312 74.8234C23.6644 73.4565 23.6644 71.2404 25.0312 69.8736L50.8406 44.0642Z" fill="black"/>
<path fill-rule="evenodd" clip-rule="evenodd" d="M90.1145 9.74004L81.4377 12.9368L56.3207 38.0538L58.6041 40.3371L82.96 15.9812C83.1281 15.8131 83.4007 15.8131 83.5689 15.9812C83.9052 16.3175 83.9052 16.8627 83.5689 17.199L59.5174 41.2505L61.8008 43.5339L86.9178 18.4168L90.1145 9.74004Z" fill="#D9D9D9"/>
<rect x="50.8406" y="46.8926" width="3" height="34" rx="1.5" transform="rotate(45 50.8406 46.8926)" fill="#D9D9D9"/>
</svg>
