<svg width="100" height="100" viewBox="0 0 100 100" fill="none" xmlns="http://www.w3.org/2000/svg">
<g clip-path="url(#clip0_10_337)">
<path fill-rule="evenodd" clip-rule="evenodd" d="M34.3231 27.6753C35.2577 29.4304 36.228 31.18 37.2342 32.9228C52.6883 59.6901 73.7798 79.9425 95.6673 91.3138C68.4384 88.6995 39.7721 69.3187 21.8778 38.3247C21.3759 37.4554 20.8862 36.5834 20.4085 35.7089L34.3231 27.6753Z" fill="#F2F2F2"/>
<path fill-rule="evenodd" clip-rule="evenodd" d="M35.2868 27.1189C36.0729 28.5585 36.8811 29.9978 37.7114 31.4359C50.4632 53.5227 66.0844 71.2629 81.2391 82.3234C63.6487 77.3503 43.3091 59.4449 28.5437 33.8705C28.1296 33.1532 27.7229 32.4351 27.3236 31.7165L35.2868 27.1189Z" fill="#ADADAD"/>
<rect x="44.7391" y="19.1035" width="43" height="7" transform="rotate(150 44.7391 19.1035)" fill="#BDAA00"/>
<rect x="24.6506" y="20.3093" width="5.43928" height="17.6777" transform="rotate(150 24.6506 20.3093)" fill="#54401A"/>
<path fill-rule="evenodd" clip-rule="evenodd" d="M65.3442 27.6753C64.4096 29.4304 63.4393 31.18 62.4331 32.9228C46.979 59.6901 25.8875 79.9425 4 91.3138C31.2289 88.6995 59.8951 69.3187 77.7895 38.3247C78.2914 37.4554 78.7811 36.5834 79.2588 35.7089L65.3442 27.6753Z" fill="#F2F2F2"/>
<path fill-rule="evenodd" clip-rule="evenodd" d="M64.3805 27.1189C63.5944 28.5585 62.7862 29.9978 61.9559 31.4359C49.2041 53.5227 33.5829 71.2629 18.4282 82.3234C36.0186 77.3503 56.3582 59.4449 71.1236 33.8705C71.5377 33.1532 71.9445 32.4351 72.3437 31.7165L64.3805 27.1189Z" fill="#ADADAD"/>
<rect width="43" height="7" transform="matrix(0.866025 0.5 0.5 -0.866025 54.9282 19.1035)" fill="#BDAA00"/>
<rect width="5.43928" height="17.6777" transform="matrix(0.866025 0.5 0.5 -0.866025 75.0167 20.3093)" fill="#54401A"/>
</g>
<defs>
<clipPath id="clip0_10_337">
<rect width="100" height="100" fill="white"/>
</clipPath>
</defs>
</svg>
