<svg width="100" height="100" viewBox="0 0 100 100" fill="none" xmlns="http://www.w3.org/2000/svg">
<g clip-path="url(#clip0_2_126)">
<path fill-rule="evenodd" clip-rule="evenodd" d="M44.8708 11.25H53.0141L55.8341 12.3901L50.5 33L44.8708 11.25ZM15.9951 46.2604L11.25 44.9378V57.0622L16.1694 55.691L15.9951 46.2604ZM22.3346 64.5699L22.1763 56.0083L24.4069 55.3756C24.8973 57.9269 25.7526 60.3484 26.9163 62.5837L23.2506 66.2494C22.9289 65.7 22.6233 65.1399 22.3346 64.5699ZM33.7033 77.0467C34.5515 77.581 35.4269 78.0761 36.327 78.5294L44.6275 78.5099L45.2317 76.3795C42.412 75.8124 39.7539 74.7989 37.3341 73.4159L33.7033 77.0467ZM44.8708 88.75L45.969 84.5068L55.0255 84.4856L56.1292 88.75H44.8708ZM56.3648 78.4824L64.8048 78.4627C73.2108 74.1798 79.442 66.2401 81.4022 56.7396L76.5931 55.3756C74.5644 65.9299 66.2911 74.263 55.7684 76.3795L56.3648 78.4824ZM47.5228 78.5032L53.4735 78.4892L50.5 67L47.5228 78.5032ZM73.5855 37.1645C75.0049 39.6479 76.0351 42.3825 76.593 45.2851L81.4022 43.9211C80.6288 40.1728 79.1906 36.6674 77.2163 33.5337L73.5855 37.1645ZM66.4191 23.0809C63.5768 21.4169 60.4509 20.1848 57.1315 19.4748L55.7684 24.2812C58.2378 24.7779 60.5833 25.6169 62.7533 26.7467L66.4191 23.0809ZM22.1397 54.027L22.0272 47.9416L33 51L22.1397 54.027ZM21.9653 44.5926L24.4069 45.2851C26.4356 34.7308 34.7089 26.3977 45.2317 24.2812L43.8685 19.4748C34.0525 21.5743 25.9289 28.2392 21.8275 37.1396L21.9653 44.5926ZM88.7114 45.2273L68 51L89.75 57.0622V48.3762L88.7114 45.2273Z" fill="white"/>
<line x1="18.1776" y1="6.19712" x2="19.5918" y2="76.9078" stroke="black"/>
<line x1="93.3431" y1="80.9533" x2="23.3396" y2="81.6604" stroke="black"/>
<path d="M14.5452 8.44444L17.9103 5.07936L19.3854 4.58765C66.7793 -11.2103 111.484 34.6653 94.4658 81.6349L91.1008 85C106.373 38.4728 63.0537 -6.0357 16.1301 7.97134L14.5452 8.44444Z" fill="#54401A"/>
<rect x="74.2462" y="20.3492" width="8" height="105" transform="rotate(45 74.2462 20.3492)" fill="#54401A"/>
<path d="M19.799 79.0391L84.1607 14.6773L85.2064 15.0459L85.575 16.0916L21.2132 80.4533L19.799 79.0391Z" fill="#DB816D"/>
<path d="M22.936 86.5419L29.9866 79.4913L28.9914 74.0894L21.9407 81.14L22.936 86.5419Z" fill="#FFB0B0"/>
<path d="M13.727 77.3329L20.7776 70.2823L26.1796 71.2775L19.1289 78.3282L13.727 77.3329Z" fill="#FFB0B0"/>
<path d="M90.5097 9.74264L86.9741 17.5208L85.9135 14.3388L82.7315 13.2782L90.5097 9.74264Z" fill="#D9D9D9"/>
</g>
<defs>
<clipPath id="clip0_2_126">
<rect width="100" height="100" fill="white"/>
</clipPath>
</defs>
</svg>
