<svg width="100" height="100" viewBox="0 0 100 100" fill="none" xmlns="http://www.w3.org/2000/svg">
<g clip-path="url(#clip0_5_233)">
<path fill-rule="evenodd" clip-rule="evenodd" d="M78.1453 15.4212C77.882 15.1579 77.7341 14.8007 77.7341 14.4283C77.7341 13.6528 77.1054 13.0241 76.3299 13.0241L64.4227 13.0241C62.3435 13.0241 60.6579 14.7097 60.6579 16.789C60.6579 17.7874 60.2612 18.745 59.5552 19.4511L54.6029 24.4034L53.8781 25.1282C53.5133 25.493 53.5133 26.0844 53.8781 26.4492C54.0904 26.6615 54.1877 26.9629 54.1396 27.2593L52.721 36.0043C52.431 37.7921 51.6609 39.4676 50.4929 40.8518L6.77648 92.6639L60.5302 44.1121C62.615 42.2291 62.6975 38.9839 60.711 36.9974C60.6226 36.9091 60.5788 36.7846 60.5988 36.6613L61.4581 31.364C61.7942 29.292 62.7738 27.3784 64.258 25.8942L68.1023 22.0499C68.835 21.3171 69.8289 20.9054 70.8652 20.9054C71.9015 20.9054 72.8954 21.3171 73.6281 22.0499L77.4317 25.8534C79.0017 27.4234 78.4986 30.0814 76.4634 30.969C74.8684 31.6646 74.1394 33.5214 74.835 35.1164L75.1508 35.8406C76.0209 37.8355 78.3434 38.7474 80.3383 37.8773L87.3588 34.8155C89.7074 33.7911 90.781 31.0568 89.7567 28.7081L88.4971 25.8199C88.4942 25.8134 88.4957 25.8058 88.5007 25.8008C88.5074 25.7941 88.5074 25.7832 88.5007 25.7765L88.4607 25.7366L78.1453 15.4212Z" fill="#54401A"/>
<circle cx="68.5" cy="36.5" r="3.5" fill="#FA0000"/>
<path d="M93.1759 40L95.0034 44.3483L99.3518 46.1759L95.0034 48.0034L93.1759 52.3518L91.3483 48.0034L87 46.1759L91.3483 44.3483L93.1759 40Z" fill="#FA0000"/>
<path d="M87.1759 6L89.0034 10.3483L93.3518 12.1759L89.0034 14.0034L87.1759 18.3518L85.3483 14.0034L81 12.1759L85.3483 10.3483L87.1759 6Z" fill="#FA0000"/>
<path d="M66.1759 50L68.0034 54.3483L72.3518 56.1759L68.0034 58.0034L66.1759 62.3518L64.3483 58.0034L60 56.1759L64.3483 54.3483L66.1759 50Z" fill="#FA0000"/>
<path d="M38.1759 27L40.0034 31.3483L44.3518 33.1759L40.0034 35.0034L38.1759 39.3518L36.3483 35.0034L32 33.1759L36.3483 31.3483L38.1759 27Z" fill="#FA0000"/>
</g>
<defs>
<clipPath id="clip0_5_233">
<rect width="100" height="100" fill="white"/>
</clipPath>
</defs>
</svg>
