<svg width="100" height="100" viewBox="0 0 100 100" fill="none" xmlns="http://www.w3.org/2000/svg">
<rect x="45.377" y="8" width="5.5082" height="86.7541" rx="2.7541" transform="rotate(30 45.377 8)" fill="#393939"/>
<circle cx="57" cy="15" r="3" fill="#BCBCBC"/>
<ellipse cx="66.5" cy="19" rx="2.5" ry="3" fill="#BCBCBC"/>
<ellipse cx="72" cy="27.5" rx="3" ry="2.5" fill="#BCBCBC"/>
<ellipse cx="73.5" cy="37" rx="2.5" ry="3" fill="#BCBCBC"/>
<ellipse cx="69.5" cy="45" rx="2.5" ry="3" fill="#BCBCBC"/>
<rect x="32.8459" y="60.3279" width="4.40656" height="11.0164" fill="#31DB38"/>
<rect x="29.541" y="68.0394" width="4.40656" height="11.0164" transform="rotate(-90 29.541 68.0394)" fill="#31DB38"/>
<rect x="74.1574" y="80.9836" width="4.40656" height="11.0164" fill="#31DB38"/>
<rect x="70.8525" y="88.6951" width="4.40656" height="11.0164" transform="rotate(-90 70.8525 88.6951)" fill="#31DB38"/>
<rect x="90.682" y="50.6885" width="4.40656" height="11.0164" fill="#31DB38"/>
<rect x="87.377" y="58.4" width="4.40656" height="11.0164" transform="rotate(-90 87.377 58.4)" fill="#31DB38"/>
<rect x="49.3705" y="25.9016" width="4.40656" height="11.0164" fill="#31DB38"/>
<rect x="46.0656" y="33.6131" width="4.40656" height="11.0164" transform="rotate(-90 46.0656 33.6131)" fill="#31DB38"/>
<rect x="59.7012" y="52.4838" width="13.7705" height="12.4392" transform="rotate(18.031 59.7012 52.4838)" fill="#D9D9D9"/>
<rect width="8.42326" height="8.42326" transform="matrix(0.955573 -0.294754 0.598957 0.800781 59.6801 52.5484)" fill="#D9D9D9"/>
<rect width="8.42326" height="8.42326" transform="matrix(0.955573 -0.294754 0.598957 0.800781 55.8298 64.3766)" fill="#D9D9D9"/>
<path d="M60.5445 53.4285L66.2463 51.4831L65.1275 54.9204L60.5445 53.4285Z" fill="black"/>
<path d="M71.6746 57.0516L68.2105 52.1225L67.0916 55.5597L71.6746 57.0516Z" fill="black"/>
<path d="M56.9747 64.395L60.4388 69.324L61.5577 65.8868L56.9747 64.395Z" fill="black"/>
<path d="M68.1048 68.018L62.403 69.9634L63.5218 66.5261L68.1048 68.018Z" fill="black"/>
</svg>
