<svg width="100" height="100" viewBox="0 0 100 100" fill="none" xmlns="http://www.w3.org/2000/svg">
<g clip-path="url(#clip0_3_167)">
<path fill-rule="evenodd" clip-rule="evenodd" d="M54.3121 65.4351L54.2761 65.3989L49.3726 60.4677L40.7937 69.0467C47.1779 69.9235 53.7436 70.1962 61.131 69.9497L54.3546 65.4632L54.3121 65.4351ZM23.7026 66.248C22.5489 65.896 21.3837 65.5231 20.2036 65.129C20.6501 66.2301 21.1112 67.3085 21.5869 68.3637L23.7026 66.248ZM24.5045 65.4461C22.9332 64.9736 21.341 64.4621 19.7188 63.9103C14.4168 50.3199 11.2389 33.413 9.68376 14.2499L31.6897 42.6795L31.7086 42.704L31.7305 42.726L39.4558 50.4949L24.5045 65.4461ZM50.0797 59.7606L54.9492 64.6576L62.8591 69.8946C62.9991 69.9185 63.1201 70.001 63.1948 70.1169L68.6326 73.7171C69.6783 62.1437 70.0208 53.4153 69.9828 39.8575L50.0797 59.7606ZM56.4269 33.5237L40.1629 49.7878L32.4615 42.0429L10.4564 13.6143C26.3067 23.8518 42.2755 28.9795 55.8814 33.3486C56.0636 33.4071 56.2455 33.4655 56.4269 33.5237ZM70.9794 38.861L71.2158 38.6245C80.6466 42.3737 87.7076 46.8387 90.9405 54.5767C95.3615 65.1585 92.0259 75.7773 89.3043 84.3346C88.5932 86.5702 87.1772 88.5675 85.0499 89.5565C71.1349 96.0255 47.5085 92.9719 33.7452 86.0283C32.7614 85.532 31.8923 84.8399 31.181 83.9982C30.3731 83.0421 29.5901 82.0452 28.8317 81.0087L39.9087 69.9317C46.9843 70.9576 54.2508 71.2415 62.5615 70.8968L87.5109 87.4155L88.0629 86.5817L69.5797 74.3442C70.693 62.1798 71.0379 53.2247 70.9794 38.861Z" fill="#00AF46"/>
<rect x="67.698" y="26.4153" width="8.32516" height="95.7394" transform="rotate(45 67.698 26.4153)" fill="#FFD99F"/>
<path d="M78.2978 20.1143L88.9829 9.42917L90.0203 10.3541L90.9452 11.3914L80.26 22.0766L78.2978 20.1143Z" fill="#494949"/>
<path d="M97.3787 2.99563L92.4731 13.7881L89.455 11.1525L86.5863 7.90128L97.3787 2.99563Z" fill="#D9D9D9"/>
<path d="M74.9265 19.4049L79.2894 15.042L82.3764 15.4022L78.0135 19.7651L74.9265 19.4049Z" fill="#FFB0B0"/>
<path d="M84.9698 17.9955L80.6069 22.3584L80.9671 25.4455L85.33 21.0826L84.9698 17.9955Z" fill="#FFB0B0"/>
<rect x="73.7073" y="23.6402" width="1.38753" height="4.16258" transform="rotate(45 73.7073 23.6402)" fill="black"/>
<rect x="77.8699" y="23.6402" width="1.38753" height="4.16258" transform="rotate(45 77.8699 23.6402)" fill="black"/>
</g>
<defs>
<clipPath id="clip0_3_167">
<rect width="100" height="100" fill="white"/>
</clipPath>
</defs>
</svg>
