<svg width="100" height="100" viewBox="0 0 100 100" fill="none" xmlns="http://www.w3.org/2000/svg">
<g clip-path="url(#clip0_4_202)">
<path d="M83.1759 47L85.0034 51.3483L89.3518 53.1759L85.0034 55.0034L83.1759 59.3518L81.3483 55.0034L77 53.1759L81.3483 51.3483L83.1759 47Z" fill="#F4AEFF"/>
<path d="M35.1759 22L37.0035 26.3483L41.3518 28.1759L37.0035 30.0034L35.1759 34.3518L33.3483 30.0034L29 28.1759L33.3483 26.3483L35.1759 22Z" fill="#F4AEFF"/>
<path d="M68.1759 10L70.0034 14.3483L74.3518 16.1759L70.0034 18.0034L68.1759 22.3518L66.3483 18.0034L62 16.1759L66.3483 14.3483L68.1759 10Z" fill="#F4AEFF"/>
<path d="M94.7125 7.3385C94.9903 7.07924 95.4236 7.0867 95.6922 7.35538C95.9587 7.62184 95.9686 8.05073 95.7146 8.32914L20.3357 90.9735C18.3353 93.1667 14.9086 93.2454 12.8096 91.1464C10.7272 89.064 10.7857 85.6702 12.9386 83.6608L94.7125 7.3385Z" fill="#54401A"/>
<rect x="42" y="54.8249" width="11" height="3" rx="1.5" transform="rotate(90 42 54.8249)" fill="#54401A"/>
<rect x="56.0057" y="44.1628" width="10.8373" height="2.69111" rx="1.34555" transform="rotate(-15 56.0057 44.1628)" fill="#54401A"/>
</g>
<defs>
<clipPath id="clip0_4_202">
<rect width="100" height="100" fill="white"/>
</clipPath>
</defs>
</svg>
