<svg width="100" height="100" viewBox="0 0 100 100" fill="none" xmlns="http://www.w3.org/2000/svg">
<path d="M10.194 89.394C9.98977 89.5825 9.67315 89.5762 9.47663 89.3797C9.2787 89.1818 9.27391 88.8623 9.46582 88.6586L74.982 19.0898C76.4756 17.5038 78.9845 17.4662 80.525 19.0067C82.0761 20.5578 82.0256 23.088 80.4136 24.5759L10.194 89.394Z" fill="#54401A"/>
<ellipse cx="78.0642" cy="21.4957" rx="10" ry="10.5" transform="rotate(45 78.0642 21.4957)" fill="#D9D9D9"/>
<rect x="68.5183" y="22.5564" width="3" height="6" rx="1.5" transform="rotate(45 68.5183 22.5564)" fill="#D9D9D9"/>
<rect x="74.8822" y="28.9203" width="3" height="6" rx="1.5" transform="rotate(45 74.8822 28.9203)" fill="#D9D9D9"/>
<rect x="72.7609" y="26.799" width="3" height="6" rx="1.5" transform="rotate(45 72.7609 26.799)" fill="#D9D9D9"/>
<rect x="70.6396" y="24.6777" width="3" height="6" rx="1.5" transform="rotate(45 70.6396 24.6777)" fill="#D9D9D9"/>
<path fill-rule="evenodd" clip-rule="evenodd" d="M76.5928 13.7897C75.5001 13.7988 74.4384 14.3617 73.8384 15.3692C72.9247 16.9036 73.4278 18.8883 74.9622 19.802C75.9697 20.402 77.1713 20.3911 78.1364 19.8785L76.5928 13.7897Z" fill="black"/>
<path fill-rule="evenodd" clip-rule="evenodd" d="M85.9756 23.1725C85.9665 24.2653 85.4036 25.3269 84.3961 25.9269C82.8617 26.8407 80.8771 26.3375 79.9633 24.8031C79.3633 23.7956 79.3742 22.594 79.8868 21.6289L85.9756 23.1725Z" fill="black"/>
<path d="M76.8742 22.0734C77.2459 21.9738 77.5862 22.314 77.4865 22.6858L77.0382 24.3588C76.9386 24.7306 76.4739 24.8551 76.2017 24.5829L74.977 23.3582C74.7048 23.086 74.8293 22.6213 75.2011 22.5217L76.8742 22.0734Z" fill="#020000"/>
<path d="M42.1759 24L44.0034 28.3483L48.3518 30.1759L44.0034 32.0034L42.1759 36.3518L40.3483 32.0034L36 30.1759L40.3483 28.3483L42.1759 24Z" fill="#0C9300"/>
<path d="M93.1759 40L95.0034 44.3483L99.3518 46.1759L95.0034 48.0034L93.1759 52.3518L91.3483 48.0034L87 46.1759L91.3483 44.3483L93.1759 40Z" fill="#0C9300"/>
<path d="M61.1759 62L63.0034 66.3483L67.3518 68.1759L63.0034 70.0034L61.1759 74.3518L59.3483 70.0034L55 68.1759L59.3483 66.3483L61.1759 62Z" fill="#0C9300"/>
</svg>
