<svg width="100" height="100" viewBox="0 0 100 100" fill="none" xmlns="http://www.w3.org/2000/svg">
<g clip-path="url(#clip0_2_66)">
<rect x="44.4287" y="21.6494" width="3.08199" height="88.8574" transform="rotate(30 44.4287 21.6494)" fill="#54401A"/>
<path d="M94 74.4675C94 76.4185 92.433 78 90.5 78C88.567 78 87 76.4185 87 74.4675C87 72.5166 88.75 67.4026 90.5 61C92.0312 68.0649 94 72.5166 94 74.4675Z" fill="#C70000"/>
<path fill-rule="evenodd" clip-rule="evenodd" d="M42.1361 16.1174C43.4728 16.7486 44.8085 17.4034 46.1422 18.0818C66.6262 28.5009 82.895 42.5768 92.8529 57.0988C88.7443 39.1348 72.4804 20.0755 48.7618 8.01128C48.0966 7.67292 47.4304 7.34253 46.7634 7.02011L42.1361 16.1174Z" fill="#F2F2F2"/>
<path fill-rule="evenodd" clip-rule="evenodd" d="M41.8156 16.7474C42.9136 17.2781 44.0132 17.8234 45.1137 18.3831C62.016 26.9803 76.0328 37.4297 85.2158 47.5127C80.2036 35.8786 65.6815 22.3188 46.1102 12.3641C45.5613 12.0849 45.0124 11.8106 44.4638 11.5411L41.8156 16.7474Z" fill="#ADADAD"/>
</g>
<defs>
<clipPath id="clip0_2_66">
<rect width="100" height="100" fill="white"/>
</clipPath>
</defs>
</svg>
