<svg width="100" height="100" viewBox="0 0 100 100" fill="none" xmlns="http://www.w3.org/2000/svg">
<path fill-rule="evenodd" clip-rule="evenodd" d="M89.6981 0H10V70.9811L24.3971 84.3499C26.4117 86.2206 28.754 87.8617 31.3554 89.2252L50.0055 99L68.2342 88.7375C70.0858 87.6952 71.7954 86.508 73.3362 85.1946L90.011 70.9811L89.6981 70.7376V0Z" fill="#8D8D8D"/>
<path fill-rule="evenodd" clip-rule="evenodd" d="M80.7376 9.96228H18.717V65.1994L18.7169 65.1995L29.2471 74.9775C31.2617 76.8482 33.604 78.4893 36.2055 79.8528L49.849 87.0036L63.4169 79.3652C65.2684 78.3228 66.978 77.1356 68.5188 75.8222L80.9811 65.1995L80.7376 65.01V9.96228Z" fill="#DA0000"/>
<path fill-rule="evenodd" clip-rule="evenodd" d="M65.664 18.6898H50.098V36.5755L50.098 36.5756V18.6791H34.5319L35.2029 19.6339C39.6864 26.0132 43.4011 32.8845 46.2792 40.1042C39.0921 37.2311 32.2512 33.5286 25.8981 29.0636L24.9434 28.3926L24.9434 43.9586L24.9539 43.9586L24.9539 59.5247L25.9086 58.8537C32.2841 54.3729 39.1511 50.66 46.366 47.7826C43.4932 54.9678 39.7914 61.807 35.3275 68.1585L34.6565 69.1132H50.2225V69.1027H65.7886L65.1176 68.148C60.6377 61.7739 56.9255 54.9086 54.0484 47.6954C61.2291 50.5675 68.0642 54.2677 74.4121 58.7291L75.3669 59.4001V43.8341L75.3774 43.8341V28.268L74.4226 28.939C68.0448 33.4215 61.1752 37.1354 53.9573 40.0132C56.8297 32.8307 60.5305 25.9939 64.993 19.6445L65.664 18.6898Z" fill="white"/>
</svg>
