<svg width="100" height="100" viewBox="0 0 100 100" fill="none" xmlns="http://www.w3.org/2000/svg">
<path fill-rule="evenodd" clip-rule="evenodd" d="M71.7117 38.4312L65.1506 8.73193L48.5249 34.2012L18.8257 40.7623L44.2949 57.388L50.856 87.0872L67.4817 61.618L97.181 55.0569L71.7117 38.4312ZM53.1323 51.8126C54.9622 54.4593 58.5913 55.1214 61.238 53.2914C63.8847 51.4614 64.5467 47.8323 62.7167 45.1857C60.8867 42.539 57.2577 41.8769 54.611 43.7069C51.9643 45.5369 51.3023 49.1659 53.1323 51.8126Z" fill="#F2F2F2"/>
<path d="M19.0639 41.3253L35.296 44.2866C41.5442 45.4265 45.6852 51.4157 44.5454 57.6638L19.0639 41.3253Z" fill="#D9D9D9"/>
<path d="M51.4151 86.871L54.3764 70.6389C55.5162 64.3907 61.5054 60.2496 67.7535 61.3895L51.4151 86.871Z" fill="#D9D9D9"/>
<path d="M96.8709 55.0117L80.6388 52.0504C74.3907 50.9105 70.2496 44.9213 71.3895 38.6732L96.8709 55.0117Z" fill="#D9D9D9"/>
<path d="M65.1014 9.0639L62.1401 25.296C61.0003 31.5441 55.0111 35.6852 48.7629 34.5454L65.1014 9.0639Z" fill="#D9D9D9"/>
<rect x="27.3025" y="56.3403" width="4.79299" height="35.9474" transform="rotate(-17.5538 27.3025 56.3403)" fill="#3E3E3E"/>
<path d="M19.716 57.8223L13.7994 6.57067L39.4113 51.5921L33.8567 69.9767L19.716 57.8223Z" fill="#F2F2F2"/>
<path fill-rule="evenodd" clip-rule="evenodd" d="M19.6782 57.4954L19.716 57.8223L33.8567 69.9767L39.4113 51.5921L39.2479 51.3049L19.6782 57.4954Z" fill="#3E3E3E"/>
<path fill-rule="evenodd" clip-rule="evenodd" d="M28.4606 54.7172L39.2479 51.3048L13.7994 6.57063L14.1265 9.40362L28.4606 54.7172Z" fill="#D9D9D9"/>
</svg>
