<svg width="100" height="100" viewBox="0 0 100 100" fill="none" xmlns="http://www.w3.org/2000/svg">
<g clip-path="url(#clip0_2_27)">
<path fill-rule="evenodd" clip-rule="evenodd" d="M62.8109 45.2992L57.789 50.3212L63.3259 52.6482L51.3772 57.6701L46.3553 69.6188L44.0282 64.0819L38.2992 69.8109L45.6482 87.2965L55.9013 62.9013L80.2965 52.6482L62.8109 45.2992ZM30.7143 60.9339L11 52.6482L35.3952 42.3952L45.6482 18L53.9339 37.7143L49.2007 42.4476L46.3553 35.6777L41.3334 47.6263L29.3848 52.6482L36.1547 55.4936L30.7143 60.9339Z" fill="#FFD99F"/>
<path fill-rule="evenodd" clip-rule="evenodd" d="M13.9178 82.299L7.20918e-06 96.2168L3.53554 99.7523L17.4411 85.8467L13.9178 85.8467L13.9178 82.299Z" fill="#54401A"/>
<path fill-rule="evenodd" clip-rule="evenodd" d="M91.2168 5L90.1561 13.1317L22.8518 80.4361V77.6076L86.6206 13.8388L86.9741 12.0711L22.1324 76.9128H19.304L91.2168 5Z" fill="white"/>
<path fill-rule="evenodd" clip-rule="evenodd" d="M24.3848 75.3467L24.3848 87.3467L12.3848 87.3467L12.3848 75.3467L24.3848 75.3467ZM22.3848 77.3467L22.3848 85.3467L14.3848 85.3467L14.3848 77.3467L22.3848 77.3467ZM20.3848 83.3467L20.3848 79.3467L16.3848 79.3467L16.3848 83.3467L20.3848 83.3467Z" fill="#4D4D4D"/>
</g>
<defs>
<clipPath id="clip0_2_27">
<rect width="100" height="100" fill="white"/>
</clipPath>
</defs>
</svg>
