<svg width="100" height="100" viewBox="0 0 100 100" fill="none" xmlns="http://www.w3.org/2000/svg">
<path d="M46.7778 21H71.0964L79 99H46.7778V21Z" fill="#696969"/>
<path d="M53.2222 21H28.9036L21 99H53.2222V21Z" fill="#696969"/>
<path d="M21 10H79V15C79 18.3137 76.3137 21 73 21H27C23.6863 21 21 18.3137 21 15V10Z" fill="#696969"/>
<path d="M15 99H85V90C85 86.6863 82.3137 84 79 84H21C17.6863 84 15 86.6863 15 90V99Z" fill="#696969"/>
<rect x="21" width="10" height="10" fill="#696969"/>
<rect x="69" width="10" height="10" fill="#696969"/>
<rect x="45" width="11" height="10" fill="#696969"/>
<path d="M40 79C40 73.4772 44.4772 69 50 69V69C55.5228 69 60 73.4772 60 79V99H40V79Z" fill="black"/>
<path fill-rule="evenodd" clip-rule="evenodd" d="M64.8827 25H35V53.6792H35.0001L35 53.6793L38.5883 57.2698C40.5443 59.227 42.8185 60.944 45.3443 62.3705L50 65L55.1753 61.8604C56.973 60.7698 58.6328 59.5277 60.1288 58.1535L65 53.6793L64.8827 53.5809V25Z" fill="#DA0000"/>
<path fill-rule="evenodd" clip-rule="evenodd" d="M61.5754 27.6667H38.3333V52.522L38.3333 52.522L40.6059 55.0559C42.4711 57.1355 44.6397 58.9599 47.0482 60.4757L50 62.3333L53.5499 59.9336C55.2642 58.7748 56.8469 57.455 58.2735 55.9949L61.6666 52.522L61.5754 52.4368V27.6667Z" fill="white"/>
<path fill-rule="evenodd" clip-rule="evenodd" d="M59.9218 30H40V51.5094L40 51.5094L40 51.5095L41.5589 53.2642C43.4157 55.3544 45.5746 57.1882 47.9723 58.7116L50 60L52.686 58.1668C54.3926 57.0021 55.9683 55.6756 57.3885 54.208L60 51.5094L59.9218 51.4356V30Z" fill="#DA0000"/>
</svg>
